<svg enable-background="new 0 0 16 16" viewBox="0 0 16 16" xmlns="http://www.w3.org/2000/svg"><path d="m8 2c-3.3 0-6 2.7-6 6s2.7 6 6 6 6-2.7 6-6-2.7-6-6-6zm3.9 3.8h-1.5c-.1-.7-.2-1.3-.4-1.8.7.3 1.4 1 1.9 1.8zm.6 2.2c0 .3 0 .5-.1.8h-1.9c0-.2 0-.5 0-.8s0-.5 0-.8h1.9c.1.3.1.5.1.8zm-4.5 4.5c-.2-.2-.6-.9-.8-2.2h1.6c-.2 1.2-.6 2-.8 2.2zm-1-3.7c0-.3 0-.5 0-.8s0-.5 0-.8h2v.8s0 .5 0 .8zm-3.5-.8c0-.3 0-.5.1-.8h1.9v.8s0 .5 0 .8h-1.9c-.1-.3-.1-.5-.1-.8zm4.5-4.5c.2.1.6.9.8 2.2h-1.6c.2-1.3.6-2.1.8-2.2zm-1.9.4c-.2.6-.3 1.2-.4 1.9h-1.6c.5-.8 1.2-1.5 2-1.9zm-2 6.3h1.5c.1.7.2 1.3.4 1.8-.7-.3-1.4-1-1.9-1.8zm5.8 1.9c.2-.5.3-1.1.4-1.8h1.5c-.4.7-1.1 1.4-1.9 1.8z"/></svg>